<?xml version="1.0" encoding="UTF-8" standalone="no"?>
<!DOCTYPE svg PUBLIC "-//W3C//DTD SVG 1.1//EN" "http://www.w3.org/Graphics/SVG/1.1/DTD/svg11.dtd">
<!-- Created with Vectornator (http://vectornator.io/) -->
<svg height="100%" stroke-miterlimit="10" style="fill-rule:nonzero;clip-rule:evenodd;stroke-linecap:round;stroke-linejoin:round;" version="1.1" viewBox="0 0 1600 440" width="100%" xml:space="preserve" xmlns="http://www.w3.org/2000/svg" xmlns:vectornator="http://vectornator.io" xmlns:xlink="http://www.w3.org/1999/xlink">
<defs/>
<g id="Слой-1" vectornator:layerName="Слой 1">
<g opacity="1">
<g opacity="1">
<path d="M110 70L110 370L170 370L230 310L230 130L170 70L110 70Z" fill="none" opacity="1" stroke="#000000" stroke-linecap="round" stroke-linejoin="round" stroke-width="15"/>
<g opacity="1">
<path d="M290 370L320 70L380 70L410 370" fill="none" opacity="1" stroke="#000000" stroke-linecap="round" stroke-linejoin="round" stroke-width="15"/>
<path d="M305 220L350 220" fill="none" opacity="1" stroke="#000000" stroke-linecap="round" stroke-linejoin="round" stroke-width="15"/>
</g>
<g opacity="1">
<path d="M470 370L470 70L545 70L590 100L590 190L545 220L470 220" fill="none" opacity="1" stroke="#000000" stroke-linecap="round" stroke-linejoin="round" stroke-width="15"/>
<path d="M590 370L545 220" fill="none" opacity="1" stroke="#000000" stroke-linecap="round" stroke-linejoin="round" stroke-width="15"/>
</g>
<g opacity="1">
<path d="M650 370L650 70" fill="none" opacity="1" stroke="#000000" stroke-linecap="round" stroke-linejoin="round" stroke-width="15"/>
<path d="M650 220L770 190L770 70" fill="none" opacity="1" stroke="#000000" stroke-linecap="round" stroke-linejoin="round" stroke-width="15"/>
<path d="M650 220L770 280L770 370" fill="none" opacity="1" stroke="#000000" stroke-linecap="round" stroke-linejoin="round" stroke-width="15"/>
</g>
<path d="M1010 370L1010 70L1040 70L1100 370L1130 370L1130 70" fill="none" opacity="1" stroke="#000000" stroke-linecap="round" stroke-linejoin="round" stroke-width="15"/>
<g opacity="1">
<path d="M1190 70L1310 70" fill="none" opacity="1" stroke="#000000" stroke-linecap="round" stroke-linejoin="round" stroke-width="15"/>
<path d="M1190 370L1310 370" fill="none" opacity="1" stroke="#000000" stroke-linecap="round" stroke-linejoin="round" stroke-width="15"/>
<path d="M1190 220L1214.62 220L1250 220" fill="none" opacity="1" stroke="#000000" stroke-linecap="round" stroke-linejoin="round" stroke-width="15"/>
<path d="M1190 70L1190 370" fill="none" opacity="1" stroke="#000000" stroke-linecap="round" stroke-linejoin="round" stroke-width="15"/>
</g>
<g opacity="1">
<path d="M1370 70L1490 70" fill="none" opacity="1" stroke="#000000" stroke-linecap="round" stroke-linejoin="round" stroke-width="15"/>
<path d="M1430 70L1430 370" fill="none" opacity="1" stroke="#000000" stroke-linecap="round" stroke-linejoin="round" stroke-width="15"/>
</g>
<g opacity="1">
<path d="M1550 100L1550 370" fill="none" opacity="1" stroke="#000000" stroke-linecap="round" stroke-linejoin="round" stroke-width="15"/>
<path d="M1550 70L1550 70" fill="none" opacity="1" stroke="#000000" stroke-linecap="round" stroke-linejoin="round" stroke-width="15"/>
</g>
<path d="M1550 40L1550 10L50 10L50 430L1550 430L1550 400" fill="none" opacity="1" stroke="#000000" stroke-linecap="round" stroke-linejoin="round" stroke-width="15"/>
</g>
<g opacity="1">
<g opacity="1">
<path d="M827 235.817L852.645 290.896L864.304 291.567L887.99 351.833L910.567 302.814L923.208 291.747L947 235.873" fill="#000000" fill-rule="nonzero" opacity="1" stroke="#000000" stroke-linecap="round" stroke-linejoin="round" stroke-width="5"/>
<g opacity="1">
<path d="M915.991 262.294L946.93 235.89" fill="none" opacity="1" stroke="#ffffff" stroke-linecap="round" stroke-linejoin="round" stroke-width="5"/>
<path d="M891.565 253.263L915.974 262.269L922.917 289.632" fill="none" opacity="1" stroke="#ffffff" stroke-linecap="round" stroke-linejoin="round" stroke-width="5"/>
<path d="M890.435 276.987L891.51 253.262L890.171 235.735" fill="none" opacity="1" stroke="#ffffff" stroke-linecap="round" stroke-linejoin="round" stroke-width="5"/>
<path d="M871.102 266.279L890.415 276.996L909.28 301.582" fill="none" opacity="1" stroke="#ffffff" stroke-linecap="round" stroke-linejoin="round" stroke-width="5"/>
<path d="M871.062 266.285L880.089 236.116L880.081 236.115" fill="none" opacity="1" stroke="#ffffff" stroke-linecap="round" stroke-linejoin="round" stroke-width="5"/>
<path d="M888.032 351.733L871.082 266.355L840.512 236.101" fill="none" opacity="1" stroke="#ffffff" stroke-linecap="round" stroke-linejoin="round" stroke-width="5"/>
<path d="M888 352L864.961 290.396L853.17 290.077L827.024 235.821L946.987 235.876L922.46 291.284L909.756 302.206L888 352Z" fill="none" opacity="1" stroke="#000000" stroke-linecap="round" stroke-linejoin="round" stroke-width="5"/>
</g>
</g>
<path d="M827 220L947 220" fill="none" opacity="1" stroke="#000000" stroke-linecap="round" stroke-linejoin="round" stroke-width="15"/>
<g opacity="1">
<g opacity="1">
<path d="M903.934 177.854L927.338 203.409L936.328 196.006L910.442 160.796" fill="none" opacity="1" stroke="#000000" stroke-linecap="round" stroke-linejoin="round" stroke-width="5"/>
<path d="M866.317 156.824L880.621 175.143" fill="none" opacity="1" stroke="#000000" stroke-linecap="round" stroke-linejoin="round" stroke-width="5"/>
<path d="M850.592 183.052L853.125 155.974" fill="none" opacity="1" stroke="#000000" stroke-linecap="round" stroke-linejoin="round" stroke-width="5"/>
<path d="M909.531 140.887L910.441 160.779L903.906 177.922L890.207 204.972" fill="none" opacity="1" stroke="#000000" stroke-linecap="round" stroke-linejoin="round" stroke-width="5"/>
<path d="M827.016 204.942L850.581 183.079L874.762 188.056L880.66 175.173L903.935 177.898L887.448 108.057" fill="none" opacity="1" stroke="#000000" stroke-linecap="round" stroke-linejoin="round" stroke-width="5"/>
<path d="M874.76 188.044L880.09 204.962" fill="none" opacity="1" stroke="#000000" stroke-linecap="round" stroke-linejoin="round" stroke-width="5"/>
<path d="M827 204.936L854.407 153.549L866.771 157.152L886.925 106.934L902.929 141.15L909.551 140.782L936.316 195.968L941.559 197.256L947 205" fill="none" opacity="1" stroke="#000000" stroke-linecap="round" stroke-linejoin="round" stroke-width="5"/>
</g>
</g>
</g>
</g>
</g>
</svg>