<?xml version="1.0" encoding="UTF-8" standalone="no"?>
<!DOCTYPE svg PUBLIC "-//W3C//DTD SVG 1.1//EN" "http://www.w3.org/Graphics/SVG/1.1/DTD/svg11.dtd">
<!-- Created with Vectornator (http://vectornator.io/) -->
<svg height="100%" stroke-miterlimit="10" style="fill-rule:nonzero;clip-rule:evenodd;stroke-linecap:round;stroke-linejoin:round;" version="1.1" viewBox="0 0 75.5 142" width="100%" xml:space="preserve" xmlns="http://www.w3.org/2000/svg" xmlns:xlink="http://www.w3.org/1999/xlink">
<defs/>
<g id="Слой-1">
<g opacity="1">
<g opacity="1">
<path d="M3.47349 74.6274L18.1238 106.093L24.7842 106.476L38.3157 140.905L51.2134 112.901L58.435 106.579L72.0265 74.6596" fill="#fefefe" fill-rule="nonzero" opacity="1" stroke="#fefefe" stroke-linecap="round" stroke-linejoin="round" stroke-width="1.25"/>
<g opacity="1">
<path d="M54.3119 89.7531L71.7351 74.865" fill="none" opacity="1" stroke="#000000" stroke-linecap="round" stroke-linejoin="round" stroke-width="1.71375"/>
<path d="M40.3576 84.5939L54.3024 89.7388L58.2688 105.371" fill="none" opacity="1" stroke="#000000" stroke-linecap="round" stroke-linejoin="round" stroke-width="1.71375"/>
<path d="M39.7124 98.1468L40.3265 84.5935L39.4901 74.807" fill="none" opacity="1" stroke="#000000" stroke-linecap="round" stroke-linejoin="round" stroke-width="1.71375"/>
<path d="M28.6681 92.0299L39.7007 98.1521L50.4782 112.198" fill="none" opacity="1" stroke="#000000" stroke-linecap="round" stroke-linejoin="round" stroke-width="1.71375"/>
<path d="M28.6452 92.0334L33.8017 74.7982L33.7971 74.7978" fill="none" opacity="1" stroke="#000000" stroke-linecap="round" stroke-linejoin="round" stroke-width="1.71375"/>
<path d="M38.3397 140.847L28.6567 92.0731L11.1928 74.7895" fill="none" opacity="1" stroke="#000000" stroke-linecap="round" stroke-linejoin="round" stroke-width="1.71375"/>
<path d="M38.3214 141L25.1598 105.807L18.4239 105.625L3.48727 74.6296L72.0192 74.6615L58.0074 106.314L50.7497 112.554L38.3214 141Z" fill="none" opacity="1" stroke="#fefefe" stroke-linecap="round" stroke-linejoin="round" stroke-width="1.71375"/>
</g>
</g>
<path d="M3.47349 65.5917L72.0265 65.5917" fill="none" opacity="1" stroke="#fefefe" stroke-linecap="round" stroke-linejoin="round" stroke-width="6.855"/>
<g opacity="1">
<g opacity="1">
<path d="M37.8074 1.82077L26.1622 30.1386L19.2126 27.843L4.16263 56.5888L71.5431 56.7007L68.5494 52.6122L65.7497 51.9192L50.5112 20.3977L46.7648 20.5596L37.8074 1.82077Z" fill="#000000" fill-rule="nonzero" opacity="1" stroke="#000000" stroke-linecap="round" stroke-linejoin="round" stroke-width="1.71375"/>
<path d="M3.48168 56.9837L72.0265 57.0196" fill="#fefefe" fill-rule="nonzero" opacity="1" stroke="#000000" stroke-linecap="round" stroke-linejoin="round" stroke-width="1.71375"/>
<path d="M47.4242 41.5148L60.794 56.1134L65.9301 51.8843L51.1416 31.7697" fill="none" opacity="1" stroke="#fefefe" stroke-linecap="round" stroke-linejoin="round" stroke-width="1.71375"/>
<path d="M25.9343 29.5008L34.1061 39.9661" fill="none" opacity="1" stroke="#fefefe" stroke-linecap="round" stroke-linejoin="round" stroke-width="1.71375"/>
<path d="M16.9512 44.4843L18.398 29.015" fill="none" opacity="1" stroke="#fefefe" stroke-linecap="round" stroke-linejoin="round" stroke-width="1.71375"/>
<path d="M50.6213 20.3963L51.1411 31.7602L47.4082 41.5537L39.5821 57.0067" fill="none" opacity="1" stroke="#fefefe" stroke-linecap="round" stroke-linejoin="round" stroke-width="1.71375"/>
<path d="M3.48286 56.9891L16.9448 44.4996L30.7588 47.3428L34.1284 39.9829L47.4246 41.5399L38.0061 1.64152" fill="none" opacity="1" stroke="#fefefe" stroke-linecap="round" stroke-linejoin="round" stroke-width="1.71375"/>
<path d="M30.7573 47.3362L33.8023 57.0009" fill="none" opacity="1" stroke="#fefefe" stroke-linecap="round" stroke-linejoin="round" stroke-width="1.71375"/>
<path d="M3.41205 57.0513L19.1304 27.6299L26.1938 29.6884L37.707 1L46.8497 20.5464L50.6328 20.3363L65.9232 51.8628L68.9182 52.5984L72.132 57.107" fill="none" opacity="1" stroke="#fefefe" stroke-linecap="round" stroke-linejoin="round" stroke-width="1.71375"/>
</g>
</g>
</g>
</g>
</svg>