<?xml version="1.0" encoding="UTF-8" standalone="no"?>
<!DOCTYPE svg PUBLIC "-//W3C//DTD SVG 1.1//EN" "http://www.w3.org/Graphics/SVG/1.1/DTD/svg11.dtd">
<!-- Created with Vectornator (http://vectornator.io/) -->
<svg height="100%" stroke-miterlimit="10" style="fill-rule:nonzero;clip-rule:evenodd;stroke-linecap:round;stroke-linejoin:round;" version="1.1" viewBox="0 0 1310 420" width="100%" xml:space="preserve" xmlns="http://www.w3.org/2000/svg" xmlns:xlink="http://www.w3.org/1999/xlink">
<defs/>
<g id="Слой-1">
<g opacity="1">
<path d="M30 136.605L30 278.939L30 278.939L101.171 278.939C101.171 278.939 172.337 202.084 101.171 136.605L30 136.605Z" fill="none" opacity="1" stroke="#000000" stroke-linecap="round" stroke-linejoin="round" stroke-width="15"/>
<path d="M225.887 211.382L253.892 211.445" fill="none" opacity="1" stroke="#000000" stroke-linecap="round" stroke-linejoin="round" stroke-width="15"/>
<path d="M207.928 278.939L243.513 136.605L279.099 136.605L314.684 278.939" fill="none" opacity="1" stroke="#000000" stroke-linecap="round" stroke-linejoin="round" stroke-width="15"/>
<path d="M385.856 278.939L385.856 136.605L457.027 136.605C457.027 136.605 499.292 175.059 457.027 207.772L385.856 207.772L457.027 207.772" fill="none" opacity="1" stroke="#000000" stroke-linecap="round" stroke-linejoin="round" stroke-width="15"/>
<path d="M457.027 207.772L492.612 278.939" fill="none" opacity="1" stroke="#000000" stroke-linecap="round" stroke-linejoin="round" stroke-width="15"/>
<path d="M563.783 136.605L563.783 278.939" fill="none" opacity="1" stroke="#000000" stroke-linecap="round" stroke-linejoin="round" stroke-width="15"/>
<path d="M563.783 207.772L599.369 207.772" fill="none" opacity="1" stroke="#000000" stroke-linecap="round" stroke-linejoin="round" stroke-width="15"/>
<path d="M599.369 207.772L670.54 136.605L599.369 207.772Z" fill="none" opacity="1" stroke="#000000" stroke-linecap="round" stroke-linejoin="round" stroke-width="15"/>
<path d="M599.369 207.772L670.54 278.939" fill="none" opacity="1" stroke="#000000" stroke-linecap="round" stroke-linejoin="round" stroke-width="15"/>
<path d="M741.711 278.939L741.711 136.605L759.504 136.613L830.718 278.947L848.468 278.939L848.468 136.605" fill="none" opacity="1" stroke="#000000" stroke-linecap="round" stroke-linejoin="round" stroke-width="15"/>
<path d="M919.639 136.605L1026.4 136.605" fill="none" opacity="1" stroke="#000000" stroke-linecap="round" stroke-linejoin="round" stroke-width="15"/>
<path d="M919.639 207.772L990.81 207.772" fill="none" opacity="1" stroke="#000000" stroke-linecap="round" stroke-linejoin="round" stroke-width="15"/>
<path d="M919.639 278.939L1026.4 278.939" fill="none" opacity="1" stroke="#000000" stroke-linecap="round" stroke-linejoin="round" stroke-width="15"/>
<path d="M1150.95 278.939L1150.95 136.605" fill="none" opacity="1" stroke="#000000" stroke-linecap="round" stroke-linejoin="round" stroke-width="15"/>
<path d="M1097.57 136.605L1204.32 136.605" fill="none" opacity="1" stroke="#000000" stroke-linecap="round" stroke-linejoin="round" stroke-width="15"/>
<path d="M1275.49 243.356L1275.49 136.605" fill="none" opacity="1" stroke="#000000" stroke-linecap="round" stroke-linejoin="round" stroke-width="15"/>
<path d="M1271.1 278.947C1271.1 276.491 1273.1 274.499 1275.55 274.499C1278.01 274.499 1280 276.491 1280 278.947C1280 281.404 1278.01 283.395 1275.55 283.395C1273.1 283.395 1271.1 281.404 1271.1 278.947Z" fill="#000000" fill-rule="nonzero" opacity="1" stroke="#000000" stroke-linecap="round" stroke-linejoin="round" stroke-width="15"/>
</g>
</g>
</svg>
