<?xml version="1.0" encoding="UTF-8" standalone="no"?>
<!DOCTYPE svg PUBLIC "-//W3C//DTD SVG 1.1//EN" "http://www.w3.org/Graphics/SVG/1.1/DTD/svg11.dtd">
<!-- Created with Vectornator (http://vectornator.io/) -->
<svg height="100%" stroke-miterlimit="10" style="fill-rule:nonzero;clip-rule:evenodd;stroke-linecap:round;stroke-linejoin:round;" version="1.1" viewBox="0 0 1545 316.58" width="100%" xml:space="preserve" xmlns="http://www.w3.org/2000/svg" xmlns:vectornator="http://vectornator.io" xmlns:xlink="http://www.w3.org/1999/xlink">
<defs/>
<g id="Слой-1" vectornator:layerName="Слой 1">
<g opacity="1">
<g opacity="1">
<path d="M7.5 20.7063L7.5 296.217L68.7245 296.217L129.949 234.992L129.949 81.9308L68.7245 20.7063L7.5 20.7063Z" fill="none" opacity="1" stroke="#000000" stroke-linecap="round" stroke-linejoin="round" stroke-width="15"/>
<g opacity="1">
<path d="M191.173 296.217L221.786 20.7063L283.01 20.7063L313.622 296.217" fill="none" opacity="1" stroke="#000000" stroke-linecap="round" stroke-linejoin="round" stroke-width="15"/>
<path d="M209.541 146.217L261.582 146.217" fill="none" opacity="1" stroke="#000000" stroke-linecap="round" stroke-linejoin="round" stroke-width="15"/>
</g>
<g opacity="1">
<path d="M374.847 296.217L374.847 20.7063L451.378 20.7063L497.296 51.3186L497.296 115.604L448.316 146.217L374.847 146.217" fill="none" opacity="1" stroke="#000000" stroke-linecap="round" stroke-linejoin="round" stroke-width="15"/>
<path d="M497.296 296.217L448.316 146.217" fill="none" opacity="1" stroke="#000000" stroke-linecap="round" stroke-linejoin="round" stroke-width="15"/>
</g>
<g opacity="1">
<path d="M558.52 296.217L558.52 20.7063" fill="none" opacity="1" stroke="#000000" stroke-linecap="round" stroke-linejoin="round" stroke-width="15"/>
<path d="M561.582 147.552L680.969 116.842L680.969 20.7063" fill="none" opacity="1" stroke="#000000" stroke-linecap="round" stroke-linejoin="round" stroke-width="15"/>
<path d="M558.52 147.961L680.969 215.984L680.969 296.217" fill="none" opacity="1" stroke="#000000" stroke-linecap="round" stroke-linejoin="round" stroke-width="15"/>
</g>
<path d="M956.48 296.217L956.48 20.7063L987.092 20.7063L1048.32 296.217L1078.93 296.217L1078.93 20.7063" fill="none" opacity="1" stroke="#000000" stroke-linecap="round" stroke-linejoin="round" stroke-width="15"/>
<g opacity="1">
<path d="M1140.15 20.7063L1262.6 20.7063" fill="none" opacity="1" stroke="#000000" stroke-linecap="round" stroke-linejoin="round" stroke-width="15"/>
<path d="M1140.15 296.217L1262.6 296.217" fill="none" opacity="1" stroke="#000000" stroke-linecap="round" stroke-linejoin="round" stroke-width="15"/>
<path d="M1140.15 146.217L1155.46 146.217L1204.44 146.217" fill="none" opacity="1" stroke="#000000" stroke-linecap="round" stroke-linejoin="round" stroke-width="15"/>
<path d="M1140.15 20.7063L1140.15 296.217" fill="none" opacity="1" stroke="#000000" stroke-linecap="round" stroke-linejoin="round" stroke-width="15"/>
</g>
<g opacity="1">
<path d="M1323.83 20.7063L1446.28 20.7063" fill="none" opacity="1" stroke="#000000" stroke-linecap="round" stroke-linejoin="round" stroke-width="15"/>
<path d="M1385.05 20.7063L1385.05 296.217" fill="none" opacity="1" stroke="#000000" stroke-linecap="round" stroke-linejoin="round" stroke-width="15"/>
</g>
<g opacity="1">
<path d="M1507.5 51.3186L1507.5 296.217" fill="none" opacity="1" stroke="#000000" stroke-linecap="round" stroke-linejoin="round" stroke-width="15"/>
<path d="M1507.5 20.7063L1507.5 20.7063" fill="none" opacity="1" stroke="#000000" stroke-linecap="round" stroke-linejoin="round" stroke-width="15"/>
</g>
</g>
<g opacity="1">
<g opacity="1">
<path d="M742.194 166.391L774.904 236.646L789.775 237.501L819.988 314.371L848.785 251.846L864.909 237.731L895.255 166.463" fill="#000000" fill-rule="nonzero" opacity="1" stroke="#000000" stroke-linecap="round" stroke-linejoin="round" stroke-width="3.75"/>
<g opacity="1">
<path d="M855.703 200.163L895.165 166.485" fill="none" opacity="1" stroke="#ffffff" stroke-linecap="round" stroke-linejoin="round" stroke-width="3.75"/>
<path d="M824.547 188.644L855.682 200.131L864.538 235.033" fill="none" opacity="1" stroke="#ffffff" stroke-linecap="round" stroke-linejoin="round" stroke-width="3.75"/>
<path d="M823.106 218.904L824.477 188.643L822.77 166.287" fill="none" opacity="1" stroke="#ffffff" stroke-linecap="round" stroke-linejoin="round" stroke-width="3.75"/>
<path d="M798.447 205.246L823.08 218.916L847.143 250.275" fill="none" opacity="1" stroke="#ffffff" stroke-linecap="round" stroke-linejoin="round" stroke-width="3.75"/>
<path d="M798.396 205.254L809.909 166.772L809.899 166.771" fill="none" opacity="1" stroke="#ffffff" stroke-linecap="round" stroke-linejoin="round" stroke-width="3.75"/>
<path d="M820.041 314.243L798.422 205.343L759.429 166.753" fill="none" opacity="1" stroke="#ffffff" stroke-linecap="round" stroke-linejoin="round" stroke-width="3.75"/>
<path d="M820 314.584L790.614 236.008L775.574 235.6L742.225 166.396L895.239 166.467L863.954 237.14L847.749 251.071L820 314.584Z" fill="none" opacity="1" stroke="#000000" stroke-linecap="round" stroke-linejoin="round" stroke-width="3.75"/>
</g>
</g>
<path d="M742.194 146.217L895.255 146.217" fill="none" opacity="1" stroke="#000000" stroke-linecap="round" stroke-linejoin="round" stroke-width="15"/>
<g opacity="1">
<g opacity="1">
<path d="M840.325 92.4591L870.176 125.054L881.643 115.611L848.624 70.7008" fill="none" opacity="1" stroke="#000000" stroke-linecap="round" stroke-linejoin="round" stroke-width="3.75"/>
<path d="M792.343 65.635L810.589 89.0012" fill="none" opacity="1" stroke="#000000" stroke-linecap="round" stroke-linejoin="round" stroke-width="3.75"/>
<path d="M772.286 99.0892L775.516 64.5503" fill="none" opacity="1" stroke="#000000" stroke-linecap="round" stroke-linejoin="round" stroke-width="3.75"/>
<path d="M847.463 45.3069L848.623 70.6796L840.289 92.5459L822.815 127.049" fill="none" opacity="1" stroke="#000000" stroke-linecap="round" stroke-linejoin="round" stroke-width="3.75"/>
<path d="M742.215 127.009L772.272 99.1234L803.115 105.472L810.638 89.0387L840.325 92.5152L819.296 3.43236" fill="none" opacity="1" stroke="#000000" stroke-linecap="round" stroke-linejoin="round" stroke-width="3.75"/>
<path d="M803.112 105.457L809.91 127.036" fill="none" opacity="1" stroke="#000000" stroke-linecap="round" stroke-linejoin="round" stroke-width="3.75"/>
<path d="M742.194 127.002L777.152 61.4577L792.923 66.0537L818.628 2L839.042 45.6421L847.489 45.1729L881.628 115.563L888.315 117.206L895.255 127.084" fill="none" opacity="1" stroke="#000000" stroke-linecap="round" stroke-linejoin="round" stroke-width="3.75"/>
</g>
</g>
</g>
</g>
</g>
</svg>