<?xml version="1.0" encoding="UTF-8" standalone="no"?>
<!DOCTYPE svg PUBLIC "-//W3C//DTD SVG 1.1//EN" "http://www.w3.org/Graphics/SVG/1.1/DTD/svg11.dtd">
<!-- Created with Vectornator (http://vectornator.io/) -->
<svg height="100%" stroke-miterlimit="10" style="fill-rule:nonzero;clip-rule:evenodd;stroke-linecap:round;stroke-linejoin:round;" version="1.1" viewBox="0 0 1545 316.6" width="100%" xml:space="preserve" xmlns="http://www.w3.org/2000/svg" xmlns:vectornator="http://vectornator.io" xmlns:xlink="http://www.w3.org/1999/xlink">
<defs/>
<g id="Слой-1" vectornator:layerName="Слой 1">
<g opacity="1">
<g opacity="1">
<path d="M7.5 20.5813L7.5 296.092L68.7245 296.092L129.949 234.867L129.949 81.8058L68.7245 20.5813L7.5 20.5813Z" fill="none" opacity="1" stroke="#fefefe" stroke-linecap="round" stroke-linejoin="round" stroke-width="15"/>
<g opacity="1">
<path d="M191.173 296.092L221.786 20.5813L283.01 20.5813L313.622 296.092" fill="none" opacity="1" stroke="#fefefe" stroke-linecap="round" stroke-linejoin="round" stroke-width="15"/>
<path d="M209.541 146.092L261.582 146.092" fill="none" opacity="1" stroke="#fefefe" stroke-linecap="round" stroke-linejoin="round" stroke-width="15"/>
</g>
<g opacity="1">
<path d="M374.847 296.092L374.847 20.5813L451.378 20.5813L497.296 51.1936L497.296 115.479L448.316 146.092L374.847 146.092" fill="none" opacity="1" stroke="#fefefe" stroke-linecap="round" stroke-linejoin="round" stroke-width="15"/>
<path d="M497.296 296.092L448.316 146.092" fill="none" opacity="1" stroke="#fefefe" stroke-linecap="round" stroke-linejoin="round" stroke-width="15"/>
</g>
<g opacity="1">
<path d="M558.52 296.092L558.52 20.5813" fill="none" opacity="1" stroke="#fefefe" stroke-linecap="round" stroke-linejoin="round" stroke-width="15"/>
<path d="M561.582 147.427L680.969 116.717L680.969 20.5813" fill="none" opacity="1" stroke="#fefefe" stroke-linecap="round" stroke-linejoin="round" stroke-width="15"/>
<path d="M558.52 147.836L680.969 215.859L680.969 296.092" fill="none" opacity="1" stroke="#fefefe" stroke-linecap="round" stroke-linejoin="round" stroke-width="15"/>
</g>
<path d="M956.48 296.092L956.48 20.5813L987.092 20.5813L1048.32 296.092L1078.93 296.092L1078.93 20.5813" fill="none" opacity="1" stroke="#fefefe" stroke-linecap="round" stroke-linejoin="round" stroke-width="15"/>
<g opacity="1">
<path d="M1140.15 20.5813L1262.6 20.5813" fill="none" opacity="1" stroke="#fefefe" stroke-linecap="round" stroke-linejoin="round" stroke-width="15"/>
<path d="M1140.15 296.092L1262.6 296.092" fill="none" opacity="1" stroke="#fefefe" stroke-linecap="round" stroke-linejoin="round" stroke-width="15"/>
<path d="M1140.15 146.092L1155.46 146.092L1204.44 146.092" fill="none" opacity="1" stroke="#fefefe" stroke-linecap="round" stroke-linejoin="round" stroke-width="15"/>
<path d="M1140.15 20.5813L1140.15 296.092" fill="none" opacity="1" stroke="#fefefe" stroke-linecap="round" stroke-linejoin="round" stroke-width="15"/>
</g>
<g opacity="1">
<path d="M1323.83 20.5813L1446.28 20.5813" fill="none" opacity="1" stroke="#fefefe" stroke-linecap="round" stroke-linejoin="round" stroke-width="15"/>
<path d="M1385.05 20.5813L1385.05 296.092" fill="none" opacity="1" stroke="#fefefe" stroke-linecap="round" stroke-linejoin="round" stroke-width="15"/>
</g>
<g opacity="1">
<path d="M1507.5 51.1936L1507.5 296.092" fill="none" opacity="1" stroke="#fefefe" stroke-linecap="round" stroke-linejoin="round" stroke-width="15"/>
<path d="M1507.5 20.5813L1507.5 20.5813" fill="none" opacity="1" stroke="#fefefe" stroke-linecap="round" stroke-linejoin="round" stroke-width="15"/>
</g>
</g>
<g opacity="1">
<g opacity="1">
<path d="M742.194 166.266L774.904 236.521L789.775 237.376L819.988 314.246L848.785 251.721L864.909 237.606L895.255 166.338" fill="#fefefe" fill-rule="nonzero" opacity="1" stroke="#fefefe" stroke-linecap="round" stroke-linejoin="round" stroke-width="3.75"/>
<g opacity="1">
<path d="M855.703 200.038L895.165 166.36" fill="none" opacity="1" stroke="#000000" stroke-linecap="round" stroke-linejoin="round" stroke-width="3.75"/>
<path d="M824.547 188.519L855.682 200.006L864.538 234.908" fill="none" opacity="1" stroke="#000000" stroke-linecap="round" stroke-linejoin="round" stroke-width="3.75"/>
<path d="M823.106 218.779L824.477 188.518L822.77 166.162" fill="none" opacity="1" stroke="#000000" stroke-linecap="round" stroke-linejoin="round" stroke-width="3.75"/>
<path d="M798.447 205.121L823.08 218.791L847.143 250.15" fill="none" opacity="1" stroke="#000000" stroke-linecap="round" stroke-linejoin="round" stroke-width="3.75"/>
<path d="M798.396 205.129L809.909 166.647L809.899 166.646" fill="none" opacity="1" stroke="#000000" stroke-linecap="round" stroke-linejoin="round" stroke-width="3.75"/>
<path d="M820.041 314.118L798.422 205.218L759.429 166.628" fill="none" opacity="1" stroke="#000000" stroke-linecap="round" stroke-linejoin="round" stroke-width="3.75"/>
<path d="M820 314.459L790.614 235.883L775.574 235.475L742.225 166.271L895.239 166.342L863.954 237.015L847.749 250.946L820 314.459Z" fill="none" opacity="1" stroke="#fefefe" stroke-linecap="round" stroke-linejoin="round" stroke-width="3.75"/>
</g>
</g>
<path d="M742.194 146.092L895.255 146.092" fill="none" opacity="1" stroke="#fefefe" stroke-linecap="round" stroke-linejoin="round" stroke-width="15"/>
<g opacity="1">
<g opacity="1">
<path d="M840.325 92.3341L870.176 124.929L881.643 115.486L848.624 70.5758" fill="none" opacity="1" stroke="#fefefe" stroke-linecap="round" stroke-linejoin="round" stroke-width="3.75"/>
<path d="M792.343 65.51L810.589 88.8762" fill="none" opacity="1" stroke="#fefefe" stroke-linecap="round" stroke-linejoin="round" stroke-width="3.75"/>
<path d="M772.286 98.9642L775.516 64.4253" fill="none" opacity="1" stroke="#fefefe" stroke-linecap="round" stroke-linejoin="round" stroke-width="3.75"/>
<path d="M847.463 45.1819L848.623 70.5546L840.289 92.4209L822.815 126.924" fill="none" opacity="1" stroke="#fefefe" stroke-linecap="round" stroke-linejoin="round" stroke-width="3.75"/>
<path d="M742.215 126.884L772.272 98.9984L803.115 105.347L810.638 88.9137L840.325 92.3902L819.296 3.30736" fill="none" opacity="1" stroke="#fefefe" stroke-linecap="round" stroke-linejoin="round" stroke-width="3.75"/>
<path d="M803.112 105.332L809.91 126.911" fill="none" opacity="1" stroke="#fefefe" stroke-linecap="round" stroke-linejoin="round" stroke-width="3.75"/>
<path d="M742.194 126.877L777.152 61.3327L792.923 65.9287L818.628 1.875L839.042 45.5171L847.489 45.0479L881.628 115.438L888.315 117.081L895.255 126.959" fill="none" opacity="1" stroke="#fefefe" stroke-linecap="round" stroke-linejoin="round" stroke-width="3.75"/>
</g>
</g>
</g>
</g>
</g>
</svg>