<?xml version="1.0" encoding="UTF-8" standalone="no"?>
<!DOCTYPE svg PUBLIC "-//W3C//DTD SVG 1.1//EN" "http://www.w3.org/Graphics/SVG/1.1/DTD/svg11.dtd">
<!-- Created with Vectornator (http://vectornator.io/) -->
<svg height="100%" stroke-miterlimit="10" style="fill-rule:nonzero;clip-rule:evenodd;stroke-linecap:round;stroke-linejoin:round;" version="1.1" viewBox="0 0 75.55 142" width="100%" xml:space="preserve" xmlns="http://www.w3.org/2000/svg" xmlns:xlink="http://www.w3.org/1999/xlink">
<defs/>
<g id="Слой-1">
<g opacity="1">
<g opacity="1">
<path d="M3.5 74.6274L18.1503 106.093L24.8107 106.476L38.3422 140.905L51.2399 112.901L58.4615 106.579L72.053 74.6596" fill="#000000" fill-rule="nonzero" opacity="1" stroke="#000000" stroke-linecap="round" stroke-linejoin="round" stroke-width="1.25"/>
<g opacity="1">
<path d="M54.3384 89.7531L71.7616 74.865" fill="none" opacity="1" stroke="#ffffff" stroke-linecap="round" stroke-linejoin="round" stroke-width="1.71375"/>
<path d="M40.3841 84.5939L54.3289 89.7388L58.2953 105.371" fill="none" opacity="1" stroke="#ffffff" stroke-linecap="round" stroke-linejoin="round" stroke-width="1.71375"/>
<path d="M39.7389 98.1468L40.353 84.5935L39.5166 74.807" fill="none" opacity="1" stroke="#ffffff" stroke-linecap="round" stroke-linejoin="round" stroke-width="1.71375"/>
<path d="M28.6946 92.0299L39.7273 98.1521L50.5047 112.198" fill="none" opacity="1" stroke="#ffffff" stroke-linecap="round" stroke-linejoin="round" stroke-width="1.71375"/>
<path d="M28.6717 92.0334L33.8282 74.7982L33.8236 74.7978" fill="none" opacity="1" stroke="#ffffff" stroke-linecap="round" stroke-linejoin="round" stroke-width="1.71375"/>
<path d="M38.3662 140.847L28.6832 92.0731L11.2193 74.7895" fill="none" opacity="1" stroke="#ffffff" stroke-linecap="round" stroke-linejoin="round" stroke-width="1.71375"/>
<path d="M38.3479 141L25.1863 105.807L18.4505 105.625L3.51378 74.6296L72.0458 74.6615L58.0339 106.314L50.7762 112.554L38.3479 141Z" fill="none" opacity="1" stroke="#000000" stroke-linecap="round" stroke-linejoin="round" stroke-width="1.71375"/>
</g>
</g>
<path d="M3.5 65.5917L72.053 65.5917" fill="none" opacity="1" stroke="#000000" stroke-linecap="round" stroke-linejoin="round" stroke-width="6.855"/>
<g opacity="1">
<g opacity="1">
<path d="M37.8339 1.82077L26.1887 30.1386L19.2391 27.843L4.18914 56.5888L71.5696 56.7007L68.5759 52.6122L65.7763 51.9192L50.5377 20.3977L46.7914 20.5596L37.8339 1.82077Z" fill="#fefefe" fill-rule="nonzero" opacity="1" stroke="#fefefe" stroke-linecap="round" stroke-linejoin="round" stroke-width="1.71375"/>
<path d="M3.50819 56.9837L72.053 57.0196" fill="#fefefe" fill-rule="nonzero" opacity="1" stroke="#fefefe" stroke-linecap="round" stroke-linejoin="round" stroke-width="1.71375"/>
<path d="M47.4507 41.5148L60.8206 56.1134L65.9566 51.8843L51.1681 31.7697" fill="none" opacity="1" stroke="#000000" stroke-linecap="round" stroke-linejoin="round" stroke-width="1.71375"/>
<path d="M25.9608 29.5008L34.1326 39.9661" fill="none" opacity="1" stroke="#000000" stroke-linecap="round" stroke-linejoin="round" stroke-width="1.71375"/>
<path d="M16.9778 44.4843L18.4245 29.015" fill="none" opacity="1" stroke="#000000" stroke-linecap="round" stroke-linejoin="round" stroke-width="1.71375"/>
<path d="M50.6478 20.3963L51.1676 31.7602L47.4347 41.5537L39.6087 57.0067" fill="none" opacity="1" stroke="#000000" stroke-linecap="round" stroke-linejoin="round" stroke-width="1.71375"/>
<path d="M3.50937 56.9891L16.9713 44.4996L30.7853 47.3428L34.1549 39.9829L47.4511 41.5399L38.0326 1.64152" fill="none" opacity="1" stroke="#000000" stroke-linecap="round" stroke-linejoin="round" stroke-width="1.71375"/>
<path d="M30.7838 47.3362L33.8288 57.0009" fill="none" opacity="1" stroke="#000000" stroke-linecap="round" stroke-linejoin="round" stroke-width="1.71375"/>
<path d="M3.5 56.9858L19.1569 27.6299L26.2203 29.6884L37.7335 1L46.8762 20.5464L50.6593 20.3363L65.9497 51.8628L68.9447 52.5984L72.053 57.0225" fill="none" opacity="1" stroke="#000000" stroke-linecap="round" stroke-linejoin="round" stroke-width="1.71375"/>
</g>
</g>
</g>
</g>
</svg>